<mxfile host="app.diagrams.net" modified="2021-12-07T17:09:41.855Z" agent="5.0 (X11; Linux x86_64) AppleWebKit/537.36 (KHTML, like Gecko) Chrome/96.0.4664.45 Safari/537.36" etag="ULkcXT171r-Bfe-JCxfl" version="15.8.7" type="github" pages="2">
  <diagram id="SqWFwGlkPupEOphNOxqh" name="SegnalaItinerario">
    <mxGraphModel dx="2121" dy="473" grid="1" gridSize="10" guides="1" tooltips="1" connect="1" arrows="1" fold="1" page="1" pageScale="1" pageWidth="850" pageHeight="1100" math="0" shadow="0">
      <root>
        <mxCell id="0" />
        <mxCell id="1" parent="0" />
        <mxCell id="P-UPh3qyv3hZ8wY0hTl4-10" value="clickPulsanteSegnala() /apriDialogSegnala()" style="edgeStyle=orthogonalEdgeStyle;rounded=0;orthogonalLoop=1;jettySize=auto;html=1;exitX=0.5;exitY=1;exitDx=0;exitDy=0;entryX=0.5;entryY=0;entryDx=0;entryDy=0;endArrow=open;endFill=0;align=left;" edge="1" parent="1" source="P-UPh3qyv3hZ8wY0hTl4-1" target="P-UPh3qyv3hZ8wY0hTl4-7">
          <mxGeometry relative="1" as="geometry" />
        </mxCell>
        <mxCell id="P-UPh3qyv3hZ8wY0hTl4-1" value="Schermata dettaglio itinerario" style="rounded=1;whiteSpace=wrap;html=1;verticalAlign=top;" vertex="1" parent="1">
          <mxGeometry x="337.5" y="190" width="105" height="60" as="geometry" />
        </mxCell>
        <mxCell id="P-UPh3qyv3hZ8wY0hTl4-5" value="" style="ellipse;html=1;shape=startState;fillColor=#000000;strokeColor=#ff0000;" vertex="1" parent="1">
          <mxGeometry x="375" y="100" width="30" height="30" as="geometry" />
        </mxCell>
        <mxCell id="P-UPh3qyv3hZ8wY0hTl4-6" value="" style="edgeStyle=orthogonalEdgeStyle;html=1;verticalAlign=bottom;endArrow=open;endSize=8;strokeColor=#ff0000;rounded=0;" edge="1" source="P-UPh3qyv3hZ8wY0hTl4-5" parent="1">
          <mxGeometry relative="1" as="geometry">
            <mxPoint x="390" y="190" as="targetPoint" />
          </mxGeometry>
        </mxCell>
        <mxCell id="P-UPh3qyv3hZ8wY0hTl4-14" value="clickFatto() [campiCompilati] /inviaSegnalazione()" style="edgeStyle=orthogonalEdgeStyle;rounded=0;orthogonalLoop=1;jettySize=auto;html=1;exitX=0;exitY=0.5;exitDx=0;exitDy=0;entryX=0;entryY=0.5;entryDx=0;entryDy=0;endArrow=open;endFill=0;align=right;" edge="1" parent="1" source="P-UPh3qyv3hZ8wY0hTl4-7" target="P-UPh3qyv3hZ8wY0hTl4-1">
          <mxGeometry relative="1" as="geometry">
            <Array as="points">
              <mxPoint x="270" y="350" />
              <mxPoint x="270" y="220" />
            </Array>
          </mxGeometry>
        </mxCell>
        <mxCell id="P-UPh3qyv3hZ8wY0hTl4-7" value="Dialog segnalazione itinerario" style="rounded=1;whiteSpace=wrap;html=1;verticalAlign=top;" vertex="1" parent="1">
          <mxGeometry x="330" y="320" width="120" height="60" as="geometry" />
        </mxCell>
        <mxCell id="P-UPh3qyv3hZ8wY0hTl4-15" value="clickFatto() [!campiCompilati] /evidenziaCampiVuoti()" style="edgeStyle=orthogonalEdgeStyle;rounded=0;orthogonalLoop=1;jettySize=auto;html=1;entryX=0.5;entryY=1;entryDx=0;entryDy=0;endArrow=open;endFill=0;align=left;exitX=1;exitY=0.5;exitDx=0;exitDy=0;" edge="1" parent="1" source="P-UPh3qyv3hZ8wY0hTl4-7" target="P-UPh3qyv3hZ8wY0hTl4-7">
          <mxGeometry x="-0.12" relative="1" as="geometry">
            <mxPoint x="450" y="350" as="sourcePoint" />
            <Array as="points">
              <mxPoint x="470" y="350" />
              <mxPoint x="470" y="440" />
              <mxPoint x="390" y="440" />
            </Array>
            <mxPoint as="offset" />
          </mxGeometry>
        </mxCell>
      </root>
    </mxGraphModel>
  </diagram>
  <diagram id="YHVfvykiVUKUb5ghU3nG" name="CreaItinerario">
    <mxGraphModel dx="2225" dy="828" grid="1" gridSize="10" guides="1" tooltips="1" connect="1" arrows="1" fold="1" page="1" pageScale="1" pageWidth="850" pageHeight="1100" math="0" shadow="0">
      <root>
        <mxCell id="PN0qWD7VaQw6Qfc42OEK-0" />
        <mxCell id="PN0qWD7VaQw6Qfc42OEK-1" parent="PN0qWD7VaQw6Qfc42OEK-0" />
      </root>
    </mxGraphModel>
  </diagram>
</mxfile>
